<svg width="198" height="239" viewBox="0 0 198 239" fill="none" xmlns="http://www.w3.org/2000/svg">
<path d="M3.53876 209.598C-2.79282 167.845 -6.62893 81.9161 47.0846 2.17366C49.3862 -1.24249 54.6114 -0.491426 55.8309 3.44159L69.342 47.1812C70.7715 51.8088 75.3667 54.7 80.1558 53.957C87.7715 52.7779 98.9083 51.7119 105.773 54.062C108.939 55.1522 112.444 54.49 115.044 52.366L165.148 11.5095C168.402 8.85251 173.191 11.7195 172.4 15.8463C166.286 47.7546 154.689 134.184 193.309 193.64C203.121 208.742 193.922 228.924 176.099 231.508L158.913 233.995C127.11 238.607 94.9187 240.036 62.8328 238.268L33.315 236.636C18.229 235.804 5.80004 224.514 3.53876 209.573V209.598Z" fill="black"/>
<path d="M56.8242 127.957C56.8242 133.909 60.1676 138.739 54.2156 138.739C48.2636 138.739 43.4341 133.909 43.4341 127.957C43.4341 122.005 48.2636 117.176 54.2156 117.176C60.1676 117.176 56.8242 122.005 56.8242 127.957Z" fill="#FBFDFC"/>
<path d="M83.6607 165.39C84.759 165.341 86.1804 165.826 87.513 166.488C89.6369 167.538 91.7044 167.554 93.8203 166.488C95.5728 165.6 97.4384 165.18 99.4089 165.511C103.875 166.262 106.055 171.374 103.528 175.275C102.946 176.171 102.179 176.979 101.388 177.698C100.079 178.885 98.9243 180.161 97.931 181.655C97.1396 182.85 96.0977 183.965 94.9429 184.812C92.0436 186.953 88.579 186.783 85.8251 184.393C84.6783 183.399 83.8303 182.059 82.845 180.888C82.207 180.128 81.5852 179.345 80.9068 178.618C79.9457 177.593 78.8151 176.704 77.9833 175.59C76.3035 173.336 76.4488 170.833 77.6279 168.434C78.7424 166.157 80.8099 165.398 83.6607 165.398V165.39Z" fill="white"/>
<path d="M50.8074 131.414C52.7164 131.414 54.264 129.866 54.264 127.957C54.264 126.048 52.7164 124.501 50.8074 124.501C48.8984 124.501 47.3509 126.048 47.3509 127.957C47.3509 129.866 48.8984 131.414 50.8074 131.414Z" fill="black"/>
<path d="M123.831 127.957C123.831 133.909 127.174 138.739 121.222 138.739C115.27 138.739 110.441 133.909 110.441 127.957C110.441 122.005 115.27 117.176 121.222 117.176C127.174 117.176 123.831 122.005 123.831 127.957Z" fill="#FBFDFC"/>
<path d="M117.814 131.414C119.723 131.414 121.271 129.866 121.271 127.957C121.271 126.048 119.723 124.501 117.814 124.501C115.905 124.501 114.358 126.048 114.358 127.957C114.358 129.866 115.905 131.414 117.814 131.414Z" fill="black"/>
</svg>
