<svg width="176" height="29" viewBox="0 0 176 29" fill="none" xmlns="http://www.w3.org/2000/svg">
<path d="M25.8978 26.1733C25.0336 26.4075 23.8285 26.3183 22.6356 26.0841C20.7489 25.7161 19.1178 26.0841 17.6571 27.2439C16.4521 28.2029 15.0644 28.8609 13.4455 28.9835C9.76947 29.2623 7.0307 25.9615 8.23576 22.6829C8.51572 21.9246 8.95393 21.2109 9.44082 20.5418C10.232 19.4378 10.8893 18.3115 11.3762 17.0514C11.7657 16.0477 12.3622 15.0441 13.1047 14.2189C14.9671 12.1447 17.7302 11.6205 20.3838 12.8472C21.4914 13.3602 22.4287 14.1631 23.439 14.8322C24.0963 15.2671 24.7414 15.7132 25.4231 16.1146C26.3847 16.6834 27.4559 17.1183 28.3323 17.7651C30.1094 19.0921 30.499 20.9209 30.0486 22.8725C29.6226 24.7236 28.1497 25.6492 25.8978 26.1733Z" fill="#F79B3A"/>
<path d="M14.2369 6.2344C14.2004 7.18231 14.3221 8.16369 14.103 9.07815C13.6404 11.0297 11.4615 12.0334 9.42864 11.3866C6.30024 10.3718 4.8395 5.9556 6.82367 3.52447C8.06529 2.0078 10.2564 1.81821 11.9606 3.08954C13.0683 3.91478 13.7256 4.98537 14.0543 6.2344C14.1152 6.2344 14.176 6.2344 14.2369 6.2344Z" fill="#F79B3A"/>
<path d="M15.6364 5.98921C15.2834 4.72904 15.2226 3.51348 15.746 2.32022C16.8902 -0.289346 19.9578 -0.802337 21.9906 1.31654C23.4514 2.85551 23.9018 4.67328 23.3418 6.64718C22.8792 8.29767 21.5281 9.36826 19.9213 9.46863C18.1806 9.569 16.7685 8.65454 15.9773 6.90368C15.8434 6.59142 15.7338 6.26801 15.6243 5.98921H15.6364Z" fill="#F79B3A"/>
<path d="M8.47942 14.5535C8.52811 15.1111 8.63767 15.6799 8.60115 16.2263C8.4429 18.4121 6.17877 19.7727 3.90246 19.0924C1.2001 18.2671 -0.297152 14.7877 1.0662 12.5016C2.0035 10.9403 3.87811 10.3827 5.63099 11.1745C7.15259 11.8771 8.01686 13.0592 8.47942 14.5535Z" fill="#F79B3A"/>
<path d="M32.2397 8.31974C32.678 9.95908 32.4588 11.4757 31.1929 12.7582C29.7078 14.2637 26.9933 14.0853 25.7395 12.4237C24.3883 10.6393 24.3518 8.08555 25.6421 6.47966C26.9202 4.89608 29.16 4.69535 30.779 6.02243C31.5215 6.64694 32.0085 7.40528 32.2519 8.30859L32.2397 8.31974Z" fill="#F79B3A"/>
<path d="M48.4262 18.08V23.46C48.4262 23.6067 48.3728 23.7333 48.2662 23.84C48.1595 23.9467 48.0328 24 47.8862 24H43.9862C43.8395 24 43.7128 23.9467 43.6062 23.84C43.4995 23.7333 43.4462 23.6067 43.4462 23.46V10.34C43.4462 10.1933 43.4995 10.0667 43.6062 9.96C43.7128 9.85333 43.8395 9.8 43.9862 9.8H47.8862C48.0328 9.8 48.1595 9.85333 48.2662 9.96C48.3728 10.0667 48.4262 10.1933 48.4262 10.34V14.64C49.1862 13.8133 50.1595 13.4 51.3462 13.4C52.5328 13.4 53.5128 13.7867 54.2862 14.56C55.0595 15.3333 55.4462 16.46 55.4462 17.94V23.44C55.4462 23.5867 55.3928 23.7133 55.2862 23.82C55.1795 23.9267 55.0528 23.98 54.9062 23.98H50.9862C50.8395 23.98 50.7128 23.9267 50.6062 23.82C50.4995 23.7133 50.4462 23.5867 50.4462 23.44V18.08C50.4462 17.3467 50.1062 16.98 49.4262 16.98C48.7595 16.98 48.4262 17.3467 48.4262 18.08ZM57.0524 19.48V18.12C57.0524 16.6 57.5924 15.4333 58.6724 14.62C59.7524 13.8067 61.1458 13.4 62.8524 13.4C64.5591 13.4 65.9524 13.8067 67.0324 14.62C68.1124 15.4333 68.6524 16.6 68.6524 18.12V19.48C68.6524 21.0133 68.1324 22.1867 67.0924 23C66.0524 23.8 64.6391 24.2 62.8524 24.2C61.0658 24.2 59.6524 23.8 58.6124 23C57.5724 22.1867 57.0524 21.0133 57.0524 19.48ZM63.7524 19.64V17.96C63.7524 17.4533 63.6858 17.1 63.5524 16.9C63.4191 16.7 63.1858 16.6 62.8524 16.6C62.5191 16.6 62.2858 16.7 62.1524 16.9C62.0191 17.1 61.9524 17.4533 61.9524 17.96V19.64C61.9524 20.1733 62.0191 20.5333 62.1524 20.72C62.2858 20.9067 62.5191 21 62.8524 21C63.1858 21 63.4191 20.9 63.5524 20.7C63.6858 20.5 63.7524 20.1467 63.7524 19.64ZM77.2002 13.6H79.0602C79.4202 13.6 79.6469 13.76 79.7402 14.08L81.0402 18.24L82.2602 14.08C82.3536 13.76 82.5802 13.6 82.9402 13.6H86.0202C86.1536 13.6 86.2669 13.6467 86.3602 13.74C86.4536 13.8333 86.5002 13.9267 86.5002 14.02C86.5002 14.1133 86.4936 14.1867 86.4802 14.24L83.5602 23.5C83.4536 23.8333 83.2336 24 82.9002 24H80.2202C79.8869 24 79.6669 23.8333 79.5602 23.5L78.1402 19.46L76.7002 23.5C76.5936 23.8333 76.3736 24 76.0402 24H73.3602C73.0269 24 72.8069 23.8333 72.7002 23.5L69.7802 14.24C69.7669 14.1867 69.7602 14.1133 69.7602 14.02C69.7602 13.9267 69.8069 13.8333 69.9002 13.74C69.9936 13.6467 70.1069 13.6 70.2402 13.6H73.3202C73.6802 13.6 73.9069 13.76 74.0002 14.08L75.2202 18.24L76.5202 14.08C76.6136 13.76 76.8402 13.6 77.2002 13.6ZM88.0393 10H99.7593C99.906 10 100.033 10.0533 100.139 10.16C100.246 10.2667 100.299 10.3933 100.299 10.54V13.76C100.299 13.9067 100.246 14.0333 100.139 14.14C100.033 14.2467 99.906 14.3 99.7593 14.3H96.4393V23.46C96.4393 23.6067 96.386 23.7333 96.2793 23.84C96.1726 23.9467 96.046 24 95.8993 24H91.8993C91.7526 24 91.626 23.9467 91.5193 23.84C91.4126 23.7333 91.3593 23.6067 91.3593 23.46V14.3H88.0393C87.8926 14.3 87.766 14.2467 87.6593 14.14C87.5526 14.0333 87.4993 13.9067 87.4993 13.76V10.54C87.4993 10.3933 87.5526 10.2667 87.6593 10.16C87.766 10.0533 87.8926 10 88.0393 10ZM101.603 19.48V18.12C101.603 16.6 102.143 15.4333 103.223 14.62C104.303 13.8067 105.697 13.4 107.403 13.4C109.11 13.4 110.503 13.8067 111.583 14.62C112.663 15.4333 113.203 16.6 113.203 18.12V19.48C113.203 21.0133 112.683 22.1867 111.643 23C110.603 23.8 109.19 24.2 107.403 24.2C105.617 24.2 104.203 23.8 103.163 23C102.123 22.1867 101.603 21.0133 101.603 19.48ZM108.303 19.64V17.96C108.303 17.4533 108.237 17.1 108.103 16.9C107.97 16.7 107.737 16.6 107.403 16.6C107.07 16.6 106.837 16.7 106.703 16.9C106.57 17.1 106.503 17.4533 106.503 17.96V19.64C106.503 20.1733 106.57 20.5333 106.703 20.72C106.837 20.9067 107.07 21 107.403 21C107.737 21 107.97 20.9 108.103 20.7C108.237 20.5 108.303 20.1467 108.303 19.64ZM126.431 10H129.591C129.738 10 129.864 10.0533 129.971 10.16C130.078 10.2667 130.131 10.3933 130.131 10.54V23.46C130.131 23.6067 130.078 23.7333 129.971 23.84C129.864 23.9467 129.738 24 129.591 24H125.971C125.824 24 125.698 23.9467 125.591 23.84C125.484 23.7333 125.431 23.6067 125.431 23.46V17.98L124.111 20.14C123.898 20.4733 123.651 20.64 123.371 20.64H121.971C121.691 20.64 121.444 20.4733 121.231 20.14L119.911 17.98V23.46C119.911 23.6067 119.858 23.7333 119.751 23.84C119.644 23.9467 119.518 24 119.371 24H115.751C115.604 24 115.478 23.9467 115.371 23.84C115.264 23.7333 115.211 23.6067 115.211 23.46V10.54C115.211 10.3933 115.264 10.2667 115.371 10.16C115.478 10.0533 115.604 10 115.751 10H118.911C119.284 10 119.571 10.18 119.771 10.54L122.671 15.34L125.571 10.54C125.771 10.18 126.058 10 126.431 10ZM142.991 19.98H137.031V20.08C137.031 20.8933 137.291 21.3 137.811 21.3C137.957 21.3 138.137 21.1933 138.351 20.98C138.564 20.7667 138.797 20.66 139.051 20.66H142.831C143.124 20.66 143.271 20.8067 143.271 21.1C143.271 21.7533 142.777 22.4333 141.791 23.14C140.817 23.8467 139.491 24.2 137.811 24.2C136.144 24.2 134.777 23.7667 133.711 22.9C132.657 22.02 132.131 20.8133 132.131 19.28V18.32C132.131 16.8667 132.671 15.6867 133.751 14.78C134.831 13.86 136.244 13.4 137.991 13.4C139.751 13.4 141.111 13.9133 142.071 14.94C143.044 15.9667 143.531 17.2667 143.531 18.84V19.44C143.531 19.5867 143.477 19.7133 143.371 19.82C143.264 19.9267 143.137 19.98 142.991 19.98ZM138.631 17.4C138.631 16.6 138.364 16.2 137.831 16.2C137.297 16.2 137.031 16.6 137.031 17.4V17.48H138.631V17.4ZM144.924 19.48V18.12C144.924 16.6 145.464 15.4333 146.544 14.62C147.624 13.8067 149.017 13.4 150.724 13.4C152.43 13.4 153.824 13.8067 154.904 14.62C155.984 15.4333 156.524 16.6 156.524 18.12V19.48C156.524 21.0133 156.004 22.1867 154.964 23C153.924 23.8 152.51 24.2 150.724 24.2C148.937 24.2 147.524 23.8 146.484 23C145.444 22.1867 144.924 21.0133 144.924 19.48ZM151.624 19.64V17.96C151.624 17.4533 151.557 17.1 151.424 16.9C151.29 16.7 151.057 16.6 150.724 16.6C150.39 16.6 150.157 16.7 150.024 16.9C149.89 17.1 149.824 17.4533 149.824 17.96V19.64C149.824 20.1733 149.89 20.5333 150.024 20.72C150.157 20.9067 150.39 21 150.724 21C151.057 21 151.29 20.9 151.424 20.7C151.557 20.5 151.624 20.1467 151.624 19.64ZM165.071 13.6H166.931C167.291 13.6 167.518 13.76 167.611 14.08L168.911 18.24L170.131 14.08C170.225 13.76 170.451 13.6 170.811 13.6H173.891C174.025 13.6 174.138 13.6467 174.231 13.74C174.325 13.8333 174.371 13.9267 174.371 14.02C174.371 14.1133 174.365 14.1867 174.351 14.24L171.431 23.5C171.325 23.8333 171.105 24 170.771 24H168.091C167.758 24 167.538 23.8333 167.431 23.5L166.011 19.46L164.571 23.5C164.465 23.8333 164.245 24 163.911 24H161.231C160.898 24 160.678 23.8333 160.571 23.5L157.651 14.24C157.638 14.1867 157.631 14.1133 157.631 14.02C157.631 13.9267 157.678 13.8333 157.771 13.74C157.865 13.6467 157.978 13.6 158.111 13.6H161.191C161.551 13.6 161.778 13.76 161.871 14.08L163.091 18.24L164.391 14.08C164.485 13.76 164.711 13.6 165.071 13.6Z" fill="white"/>
</svg>
