<svg width="26" height="27" viewBox="0 0 26 27" fill="none" xmlns="http://www.w3.org/2000/svg">
<path d="M12.9462 0.662231C10.4739 0.662231 8.05716 1.41516 6.00154 2.8258C3.94593 4.23644 2.34377 6.24143 1.39768 8.58724C0.451583 10.933 0.204041 13.5143 0.686357 16.0046C1.16867 18.4949 2.35918 20.7824 4.10734 22.5778C5.85549 24.3732 8.08278 25.5959 10.5075 26.0912C12.9323 26.5866 15.4456 26.3324 17.7297 25.3607C20.0138 24.389 21.966 22.7436 23.3395 20.6324C24.7131 18.5212 25.4462 16.0392 25.4462 13.5001C25.4425 10.0964 24.1244 6.83323 21.781 4.42648C19.4376 2.01972 16.2603 0.665969 12.9462 0.662231V0.662231ZM12.9462 7.08115C13.6879 7.08115 14.4129 7.30703 15.0296 7.73022C15.6462 8.15341 16.1269 8.75491 16.4107 9.45865C16.6946 10.1624 16.7688 10.9368 16.6241 11.6839C16.4794 12.431 16.1223 13.1172 15.5978 13.6558C15.0734 14.1944 14.4052 14.5612 13.6778 14.7099C12.9503 14.8585 12.1963 14.7822 11.5111 14.4907C10.8259 14.1992 10.2402 13.7055 9.82816 13.0722C9.41611 12.4388 9.19617 11.6942 9.19617 10.9325C9.19617 9.91106 9.59126 8.93145 10.2945 8.20919C10.9978 7.48692 11.9516 7.08115 12.9462 7.08115V7.08115ZM12.9462 23.7703C10.7452 23.7728 8.5924 23.1083 6.75742 21.8601C6.90245 20.6188 7.48482 19.4749 8.39465 18.6443C9.30449 17.8137 10.4789 17.3538 11.6962 17.3514H14.1962C15.4135 17.3538 16.5879 17.8137 17.4977 18.6443C18.4075 19.4749 18.9899 20.6188 19.1349 21.8601C17.2999 23.1083 15.1472 23.7728 12.9462 23.7703V23.7703Z" fill="white"/>
</svg>
